<svg xmlns="http://www.w3.org/2000/svg" viewBox="0 0 48 48" width="48" height="48">
  <rect width="48" height="48" rx="10" fill="#a855f7"/>
  <rect x="9" y="9" width="30" height="30" rx="5" fill="#0c0c12"/>
  <rect x="12" y="12" width="6" height="6" fill="#a855f7"/>
  <rect x="21" y="12" width="6" height="6" fill="#a855f7"/>
  <rect x="30" y="12" width="6" height="6" fill="#a855f7"/>
  <rect x="12" y="21" width="6" height="6" fill="#a855f7"/>
  <rect x="21" y="21" width="6" height="6" fill="#a855f7"/>
  <rect x="30" y="21" width="6" height="6" fill="#a855f7"/>
  <rect x="12" y="30" width="6" height="6" fill="#a855f7"/>
  <rect x="21" y="30" width="6" height="6" fill="#a855f7"/>
  <rect x="30" y="30" width="6" height="6" fill="#a855f7"/>
  <path d="M8 42l4-4 3 3 5-5 5 5 4-4 5 5v1a2 2 0 0 1-2 2H10a2 2 0 0 1-2-2v-1z" fill="#ffffff"/>
</svg>
